<?xml version="1.0" encoding="iso-8859-1"?>
<svg version="1.1" id="Layer_1" xmlns="http://www.w3.org/2000/svg" xmlns:xlink="http://www.w3.org/1999/xlink"
	 viewBox="0 0 512 512" xml:space="preserve">
<g>
	<g>
		<path d="M365.183,67.411c-0.612-1.932-1.851-3.59-3.531-4.724c-10.551-7.115-22.752-0.064-21.857,12.629
			c0.142,2.018,0.965,3.927,2.329,5.419c4.733,5.175,9.189,10.509,13.394,15.99c3.559-1.368,7.365-2.087,11.244-2.088h0.002
			c3.296,0,6.532,0.524,9.606,1.512C372.066,86.903,368.328,77.329,365.183,67.411z"/>
	</g>
</g>
<g>
	<g>
		<path d="M418.422,160.96c-0.138-2.026-0.96-3.944-2.331-5.442c-6.743-7.373-12.931-15.064-18.603-23.055
			c-1.632,7.863-5.506,13.165-11.072,18.077c2.436,5.97,4.644,12.074,6.622,18.31c0.61,1.924,1.841,3.578,3.511,4.71
			C407.153,180.752,419.276,173.568,418.422,160.96z"/>
	</g>
</g>
<g>
	<g>
		<path d="M254.092,31.135L192.5,0.426c-1.138-0.567-2.477-0.567-3.615,0l-61.592,30.708c-2.473,1.233-3.013,4.535-1.056,6.49
			l3.464,3.464v48.46c0,2.886,2.34,5.226,5.226,5.226c2.886,0,5.226-2.34,5.226-5.226c0-16.515,0-20.415,0-38.008l5.694,5.694
			c11.073-11.475,27.816-17.333,44.408-17.333c16.654,0,33.693,5.928,44.831,17.787l20.063-20.063
			C257.103,35.67,256.568,32.369,254.092,31.135z"/>
	</g>
</g>
<g>
	<g>
		<path d="M139.961,471.426v17.686c0,12.64,10.248,22.888,22.888,22.888s22.888-10.248,22.888-22.888v-17.686H139.961z"/>
	</g>
</g>
<g>
	<g>
		<path d="M195.618,471.426v17.686c0,12.64,10.248,22.888,22.888,22.888s22.888-10.248,22.888-22.888v-17.686H195.618z"/>
	</g>
</g>
<g>
	<g>
		<path d="M190.255,53.487c-15.543,0-32.174,6.457-39.082,18.928c0.615,21.294,18.058,38.369,39.501,38.369
			c20.935,0,38.058-16.277,39.43-36.864C224.135,61.15,207.431,53.487,190.255,53.487z"/>
	</g>
</g>
<g>
	<g>
		<path d="M93.572,301.168l-0.036,7.251c-0.054,10.534,8.444,19.115,18.977,19.168c0.032,0,0.066,0,0.099,0
			c10.488,0,19.018-8.477,19.07-18.978l0.037-7.441H93.572z"/>
	</g>
</g>
<g>
	<g>
		<path d="M381.071,113.401c-6.831-7.742-18.922-8.74-26.921-1.682l-7.064,6.232l25.424,28.441l6.879-6.07
			C387.288,133.352,388.041,121.299,381.071,113.401z"/>
	</g>
</g>
<g>
	<g>
		<path d="M336.897,126.943l-34.492,30.434l-28.48-21.466c-10.716-8.077-24.009-12.525-37.427-12.525h-7.443l-26.138,33.962
			l-12.105-14.764l16.278-19.267c-17.812,0-26.363,0-33.538,0c6.576,7.783,9.657,11.429,16.278,19.267
			c-1.407,1.714-11.095,13.532-12.105,14.764l-26.138-33.962h-12.213c-24.763,0-45.011,20.146-45.135,44.909L93.641,287.58h38.147
			l0.598-119.093c0.011-2.087,1.708-3.77,3.794-3.765c2.086,0.006,3.774,1.699,3.774,3.785v289.332h101.026h0.415
			c0-255.209-0.415-101.085-0.415-286.486c0-2.364,1.337-4.525,3.452-5.579c2.115-1.054,4.645-0.821,6.533,0.601l40.909,30.833
			c7.235,5.451,17.305,5.066,24.1-0.93l46.347-40.895L336.897,126.943z"/>
	</g>
</g>
</svg>